<?xml version="1.0" standalone="no"?>
<!DOCTYPE svg PUBLIC "-//W3C//DTD SVG 20010904//EN"
 "http://www.w3.org/TR/2001/REC-SVG-20010904/DTD/svg10.dtd">
<svg version="1.0" xmlns="http://www.w3.org/2000/svg"
 width="256.000000pt" height="256.000000pt" viewBox="0 0 256.000000 256.000000"
 preserveAspectRatio="xMidYMid meet">
<metadata>
Created by potrace 1.14, written by Peter Selinger 2001-2017
</metadata>
<g transform="translate(0.000000,256.000000) scale(0.100000,-0.100000)"
fill="#000000" stroke="none">
<path d="M1145 2513 c-423 -53 -784 -303 -970 -673 -94 -187 -130 -342 -130
-560 0 -167 14 -254 61 -397 121 -359 418 -656 777 -777 143 -47 230 -61 397
-61 167 0 254 14 397 61 359 121 656 418 777 777 47 142 61 230 61 392 0 166
-11 242 -57 384 -141 445 -532 776 -997 846 -88 14 -242 17 -316 8z m280 -907
c76 -34 139 -97 178 -175 28 -58 32 -75 32 -151 0 -76 -4 -93 -32 -151 -39
-79 -102 -140 -181 -177 -48 -22 -71 -27 -142 -27 -71 0 -94 5 -142 27 -79 37
-142 98 -181 177 -29 59 -32 75 -32 151 0 70 5 95 27 141 85 185 295 267 473
185z m-813 -453 c40 -212 182 -393 383 -489 226 -108 494 -77 702 80 124 94
221 252 251 409 l16 87 238 0 c131 0 238 -1 238 -3 0 -1 -5 -41 -11 -87 -31
-256 -137 -483 -310 -665 -337 -354 -850 -460 -1297 -267 -321 138 -577 436
-662 771 -14 57 -40 216 -40 248 0 2 107 3 238 3 l238 0 16 -87z"/>
<path d="M1200 1418 c-57 -39 -75 -72 -75 -138 0 -97 58 -155 155 -155 92 0
150 54 158 147 3 44 0 59 -20 88 -54 79 -149 105 -218 58z m134 -88 c26 -25
25 -76 -2 -102 -45 -45 -125 -13 -125 51 0 70 75 100 127 51z"/>
</g>
</svg>
